<?xml version="1.0" encoding="utf-8"?>
<svg version="1.1" xmlns:xlink="http://www.w3.org/1999/xlink" width="43px" height="43px" xmlns="http://www.w3.org/2000/svg">
  <g transform="matrix(1 0 0 1 -461 -139 )">
    <path d="M 482.5 139  C 494.54 139  504 148.46  504 160.5  C 504 172.54  494.54 182  482.5 182  C 470.46 182  461 172.54  461 160.5  C 461 148.46  470.46 139  482.5 139  Z " fill-rule="nonzero" fill="#ffffff" stroke="none" />
    <path d="M 482.5 139.5  C 494.26 139.5  503.5 148.74  503.5 160.5  C 503.5 172.26  494.26 181.5  482.5 181.5  C 470.74 181.5  461.5 172.26  461.5 160.5  C 461.5 148.74  470.74 139.5  482.5 139.5  Z " stroke-width="1" stroke="#797979" fill="none" />
  </g>
</svg>