<?xml version="1.0" encoding="utf-8"?>
<svg version="1.1" xmlns:xlink="http://www.w3.org/1999/xlink" width="59px" height="48px" xmlns="http://www.w3.org/2000/svg">
  <g transform="matrix(1 0 0 1 -160 -199 )">
    <path d="M 160 199  L 219 199  L 219 247  L 160 247  L 160 199  " fill-rule="nonzero" fill="#cccccc" stroke="none" />
    <path d="M 163 202  L 216 202  L 216 244  L 163 244  L 163 202  " fill-rule="nonzero" fill="#ffffff" stroke="none" />
    <path d="M 194.28 213.4  C 192.264 213.4  190.68 211.816  190.68 209.8  C 190.68 207.784  192.264 206.2  194.28 206.2  C 196.296 206.2  197.88 207.784  197.88 209.8  C 197.88 211.816  196.296 213.4  194.28 213.4  " fill-rule="nonzero" fill="#cccccc" stroke="none" />
    <path d="M 164 243  L 164 221  L 176.75 211  L 194.6 223.474576271186  L 204.8 217  L 215 223.474576271186  L 215 243  L 164 243  " fill-rule="nonzero" fill="#169bd5" stroke="none" />
  </g>
</svg>